<?xml version="1.0" standalone="no"?>
<!DOCTYPE svg PUBLIC "-//W3C//DTD SVG 20010904//EN"
 "http://www.w3.org/TR/2001/REC-SVG-20010904/DTD/svg10.dtd">
<svg version="1.0" xmlns="http://www.w3.org/2000/svg"
 width="128.000000pt" height="128.000000pt" viewBox="0 0 128.000000 128.000000"
 preserveAspectRatio="xMidYMid meet">

<g transform="translate(0.000000,128.000000) scale(0.100000,-0.100000)"
fill="#000000" stroke="none">
<path d="M363 1059 c-45 -14 -77 -33 -118 -71 -70 -63 -100 -115 -116 -198 -8
-36 -20 -69 -28 -74 -55 -34 -101 -124 -101 -196 0 -57 28 -126 69 -168 57
-58 108 -72 273 -72 l138 0 0 40 0 40 -132 0 c-152 0 -198 14 -239 71 -35 50
-34 133 3 181 15 20 41 42 57 49 26 12 29 18 34 75 10 107 61 184 152 232 72
38 178 38 251 0 56 -30 103 -77 123 -126 16 -37 16 -37 67 -16 84 35 185 -7
225 -95 17 -36 30 -51 49 -54 39 -8 91 -48 112 -87 25 -46 20 -115 -12 -160
-40 -56 -86 -70 -237 -70 l-133 0 0 -40 0 -40 138 0 c166 0 210 12 270 73 94
96 95 238 1 334 -22 23 -55 47 -74 53 -19 6 -37 20 -41 32 -10 32 -74 97 -118
121 -31 16 -59 21 -117 22 -73 0 -77 1 -99 30 -60 79 -179 136 -283 134 -29 0
-80 -9 -114 -20z"/>
<path d="M539 602 l-97 -117 59 -3 59 -3 0 -159 0 -160 80 0 80 0 0 160 0 159
59 3 59 3 -97 117 c-53 64 -98 117 -101 117 -3 0 -48 -53 -101 -117z"/>
</g>
</svg>
