<?xml version="1.0" encoding="iso-8859-1"?>
<!-- Generator: Adobe Illustrator 19.0.0, SVG Export Plug-In . SVG Version: 6.00 Build 0)  -->
<svg version="1.1" id="Capa_1" xmlns="http://www.w3.org/2000/svg" xmlns:xlink="http://www.w3.org/1999/xlink" x="0px" y="0px"
	 viewBox="0 0 512 512" style="enable-background:new 0 0 512 512;" xml:space="preserve">
<polygon style="fill:#E5E5E5;" points="264.575,469.353 264.916,392.566 247.852,392.395 247.511,469.182 0.085,467.903 0,484.966 
	511.915,487.697 512,470.633 "/>
<rect x="243.605" y="396.712" transform="matrix(-0.0052 1 -1 -0.0052 662.9753 150.9518)" style="fill:#CCCCCC;" width="25.596" height="17.064"/>
<g>
	<circle style="fill:#4398D1;" cx="255.957" cy="477.791" r="25.596"/>
	<path style="fill:#4398D1;" d="M384.107,298.63h25.596c51.831,0,93.851-42.02,93.851-93.851s-42.02-93.851-93.851-93.851
		c-4.889,0.034-9.769,0.469-14.59,1.28C372.196,35.446,291.399-8.204,214.637,14.713c-47.062,14.052-83.818,50.961-97.665,98.091
		c-4.71-1.237-9.556-1.868-14.419-1.877c-32.984,0-59.723,26.739-59.723,59.723c0.017,4.573,0.555,9.121,1.621,13.566
		c-30.203,13.25-43.948,48.487-30.689,78.69c9.522,21.697,30.971,35.715,54.664,35.723H384.107z"/>
</g>
<path style="fill:#3E8CC7;" d="M409.702,110.927c-4.889,0.034-9.769,0.469-14.59,1.28c-3.575-11.979-8.677-23.454-15.187-34.128
	C308.002,192.834,189.067,260.663,95.643,298.63h314.06c51.831,0,93.851-42.02,93.851-93.851S461.534,110.927,409.702,110.927z"/>
<rect x="153.745" y="324.217" style="fill:#E5E5E5;" width="204.766" height="68.255"/>
<rect x="153.745" y="358.344" style="fill:#DBDBDB;" width="204.766" height="34.128"/>
<rect x="179.341" y="349.812" style="fill:#CCCCCC;" width="119.447" height="17.064"/>
<rect x="315.851" y="349.812" style="fill:#88B337;" width="17.064" height="17.064"/>
<rect x="153.745" y="187.706" style="fill:#E5E5E5;" width="204.766" height="68.255"/>
<rect x="153.745" y="221.834" style="fill:#DBDBDB;" width="204.766" height="34.128"/>
<rect x="179.341" y="213.302" style="fill:#CCCCCC;" width="119.447" height="17.064"/>
<rect x="315.851" y="213.302" style="fill:#88B337;" width="17.064" height="17.064"/>
<rect x="153.745" y="255.961" style="fill:#E5E5E5;" width="204.766" height="68.255"/>
<rect x="153.745" y="290.089" style="fill:#DBDBDB;" width="204.766" height="34.128"/>
<rect x="179.341" y="281.557" style="fill:#CCCCCC;" width="119.447" height="17.064"/>
<rect x="315.851" y="281.557" style="fill:#88B337;" width="17.064" height="17.064"/>
<rect x="341.447" y="187.706" style="fill:#DBDBDB;" width="17.064" height="204.766"/>
<g>
	<rect x="153.745" y="247.43" style="fill:#CCCCCC;" width="204.766" height="17.064"/>
	<rect x="153.745" y="315.685" style="fill:#CCCCCC;" width="204.766" height="17.064"/>
</g>
<g>
</g>
<g>
</g>
<g>
</g>
<g>
</g>
<g>
</g>
<g>
</g>
<g>
</g>
<g>
</g>
<g>
</g>
<g>
</g>
<g>
</g>
<g>
</g>
<g>
</g>
<g>
</g>
<g>
</g>
</svg>
