<?xml version="1.0" standalone="no"?>
<!DOCTYPE svg PUBLIC "-//W3C//DTD SVG 20010904//EN"
 "http://www.w3.org/TR/2001/REC-SVG-20010904/DTD/svg10.dtd">
<svg version="1.0" xmlns="http://www.w3.org/2000/svg"
 width="300.000000pt" height="300.000000pt" viewBox="0 0 300.000000 300.000000"
 preserveAspectRatio="xMidYMid meet">
<metadata>
Created by potrace 1.15, written by Peter Selinger 2001-2017
</metadata>
<g transform="translate(0.000000,300.000000) scale(0.100000,-0.100000)"
fill="#000000" stroke="none">
<path d="M425 1788 l-219 -133 652 -3 c359 -1 944 -1 1302 0 l650 3 -231 133
-231 132 -852 0 -852 0 -219 -132z"/>
<path d="M170 1335 l0 -305 1335 0 1335 0 0 305 0 305 -1335 0 -1335 0 0 -305z
m2163 163 c25 -12 27 -18 27 -70 l0 -58 -60 0 -60 0 0 58 c0 49 3 59 23 68 30
16 39 16 70 2z m290 0 c25 -12 27 -18 27 -70 l0 -58 -60 0 -60 0 0 58 c0 49 3
59 23 68 30 16 39 16 70 2z m-495 -180 l-3 -113 -895 0 -895 0 -3 113 -3 112
901 0 901 0 -3 -112z m205 -10 c25 -12 27 -18 27 -70 l0 -58 -60 0 -60 0 0 58
c0 49 3 59 23 68 30 16 39 16 70 2z m290 0 c25 -12 27 -18 27 -70 l0 -58 -60
0 -60 0 0 58 c0 49 3 59 23 68 30 16 39 16 70 2z"/>
<path d="M350 1315 l0 -105 880 0 880 0 0 105 0 105 -880 0 -880 0 0 -105z
m130 65 c0 -5 7 -10 15 -10 12 0 15 -13 15 -60 l0 -60 -60 0 -60 0 0 60 c0 47
3 60 15 60 8 0 15 5 15 10 0 6 14 10 30 10 17 0 30 -4 30 -10z m220 0 c0 -5 9
-10 20 -10 19 0 21 -5 18 -57 l-3 -58 -60 0 -60 0 -3 58 c-3 52 -1 57 18 57
11 0 20 5 20 10 0 6 11 10 25 10 14 0 25 -4 25 -10z m230 0 c0 -5 7 -10 15
-10 12 0 15 -13 15 -60 l0 -60 -60 0 -60 0 0 60 c0 47 3 60 15 60 8 0 15 5 15
10 0 6 14 10 30 10 17 0 30 -4 30 -10z m220 0 c0 -5 7 -10 15 -10 12 0 15 -13
15 -60 l0 -60 -60 0 -60 0 0 60 c0 47 3 60 15 60 8 0 15 5 15 10 0 6 14 10 30
10 17 0 30 -4 30 -10z m220 0 c0 -5 7 -10 15 -10 12 0 15 -13 15 -60 l0 -60
-60 0 -60 0 0 60 c0 47 3 60 15 60 8 0 15 5 15 10 0 6 14 10 30 10 17 0 30 -4
30 -10z m220 0 c0 -5 7 -10 15 -10 12 0 15 -13 15 -60 l0 -60 -60 0 -60 0 0
60 c0 47 3 60 15 60 8 0 15 5 15 10 0 6 14 10 30 10 17 0 30 -4 30 -10z m220
0 c0 -5 7 -10 15 -10 12 0 15 -13 15 -60 l0 -60 -60 0 -60 0 0 60 c0 47 3 60
15 60 8 0 15 5 15 10 0 6 14 10 30 10 17 0 30 -4 30 -10z m220 0 c0 -5 9 -10
20 -10 18 0 20 -7 20 -60 l0 -60 -65 0 -65 0 0 60 c0 53 2 60 20 60 11 0 20 5
20 10 0 6 11 10 25 10 14 0 25 -4 25 -10z"/>
</g>
</svg>
