<?xml version="1.0" standalone="no"?>
<!DOCTYPE svg PUBLIC "-//W3C//DTD SVG 20010904//EN"
 "http://www.w3.org/TR/2001/REC-SVG-20010904/DTD/svg10.dtd">
<svg version="1.0" xmlns="http://www.w3.org/2000/svg"
 width="500.000000pt" height="318.000000pt" viewBox="0 0 500.000000 318.000000"
 preserveAspectRatio="xMidYMid meet">

<g transform="translate(0.000000,318.000000) scale(0.100000,-0.100000)"
fill="#000000" stroke="none">
<path d="M822 3091 c-72 -12 -77 -23 -75 -169 2 -154 71 -1456 79 -1492 10
-47 26 -79 42 -87 10 -4 267 -9 573 -11 l557 -3 5 -32 c2 -18 2 -47 0 -64 -5
-28 -11 -34 -39 -39 -19 -3 -37 -10 -40 -15 -3 -5 -34 -9 -70 -9 -41 0 -63 -4
-59 -10 4 -6 -18 -11 -57 -12 -35 -1 0 -5 77 -8 132 -6 128 -6 -62 -6 -110 1
-199 -2 -196 -7 2 -4 -9 -30 -26 -57 -23 -38 -28 -52 -18 -56 7 -2 122 -3 254
-2 133 2 239 0 236 -5 -7 -11 -487 -9 -499 3 -13 13 -68 -34 -62 -52 7 -21 72
-36 155 -37 45 -1 85 -5 88 -11 3 -5 37 -10 75 -10 38 0 81 -5 97 -11 37 -15
97 -17 708 -22 362 -3 524 -1 533 6 10 8 16 7 22 -3 6 -10 47 -12 207 -7 181
5 273 18 273 38 0 4 11 10 25 13 14 4 25 11 25 16 0 13 -47 13 -52 0 -2 -6 -8
-6 -18 0 -12 8 -12 10 5 10 18 1 17 2 -5 15 -25 14 -25 14 -2 15 12 0 22 -3
22 -7 0 -8 109 -14 276 -17 72 -1 96 -5 111 -19 11 -9 24 -17 30 -17 6 0 24
-6 40 -14 40 -21 95 -33 199 -45 263 -31 513 15 559 104 12 23 26 190 65 770
28 407 59 874 71 1038 11 164 18 304 15 313 -5 13 -64 14 -463 12 -434 -3
-466 -4 -610 -28 -153 -25 -153 -25 -153 -52 0 -14 6 -29 13 -31 9 -4 9 -8 -1
-15 -10 -7 -16 -76 -23 -293 -5 -156 -13 -401 -19 -544 -5 -143 -13 -378 -16
-522 l-7 -263 -60 0 c-52 0 -58 2 -52 18 4 9 11 37 15 62 12 68 55 1560 46
1603 -4 24 -16 43 -34 55 -24 16 -111 17 -1382 18 -745 1 -1374 -1 -1398 -5z
m2288 -1739 c0 -4 -19 -6 -42 -4 -71 5 -77 10 -15 11 31 0 57 -2 57 -7z m108
1 c-15 -2 -42 -2 -60 0 -18 2 -6 4 27 4 33 0 48 -2 33 -4z m152 -4 c0 -7 -19
-8 -57 -3 -78 9 -79 14 -5 14 38 0 62 -4 62 -11z m-11 -23 c-6 -6 -157 -15
-264 -16 -62 0 -85 -3 -75 -10 10 -7 -9 -10 -63 -10 -43 0 -76 -3 -74 -7 3 -5
-36 -7 -86 -7 -83 1 -86 1 -32 -6 l60 -7 -85 -2 c-47 -1 -109 -6 -138 -10 -29
-4 -55 -5 -57 -1 -2 4 -18 5 -35 2 -29 -4 -30 -3 -30 37 l0 41 442 0 c243 0
439 -2 437 -4z m69 -3 c-10 -2 -28 -2 -40 0 -13 2 -5 4 17 4 22 1 32 -1 23 -4z
m-361 -29 c-3 -3 -12 -4 -19 -1 -8 3 -5 6 6 6 11 1 17 -2 13 -5z m-137 -168
c0 -2 -7 -7 -16 -10 -8 -3 -12 -2 -9 4 6 10 25 14 25 6z m-1057 -23 c-51 -2
-136 -2 -190 0 -54 1 -12 3 92 3 105 0 149 -2 98 -3z m915 0 c-54 -2 -142 -2
-195 0 -54 1 -10 3 97 3 107 0 151 -2 98 -3z m156 -56 c5 -27 4 -37 -3 -32 -6
3 -11 20 -11 36 0 17 -4 28 -9 25 -5 -4 -7 3 -4 15 7 27 18 10 27 -44z m-27
-39 c-3 -7 -5 -2 -5 12 0 14 2 19 5 13 2 -7 2 -19 0 -25z m-314 -5 c-24 -2
-62 -2 -85 0 -24 2 -5 4 42 4 47 0 66 -2 43 -4z m255 0 c-27 -2 -69 -2 -95 0
-27 2 -5 3 47 3 52 0 74 -1 48 -3z m441 -19 c33 -4 61 -11 61 -15 0 -10 -202
-12 -249 -3 -96 19 45 32 188 18z"/>
<path d="M1454 1086 c-3 -7 1 -29 9 -47 l14 -34 21 42 c12 23 22 45 22 48 0
11 -25 -1 -43 -20 -18 -20 -19 -20 -14 3 6 24 -1 30 -9 8z"/>
<path d="M388 762 c-18 -7 -165 -160 -285 -297 -54 -61 -72 -90 -77 -121 -7
-38 -5 -42 16 -48 41 -11 3620 -7 3659 4 30 9 38 16 41 41 3 16 1 32 -4 35 -5
3 -6 9 -3 13 2 5 -2 17 -10 27 -18 24 -19 38 -2 28 6 -4 4 2 -5 13 -10 11 -18
27 -18 35 0 9 -7 32 -15 51 -8 20 -12 44 -8 53 5 13 3 15 -7 9 -10 -6 -12 -4
-7 8 3 10 3 17 -1 17 -4 0 -12 10 -17 23 -6 12 -17 22 -25 22 -8 0 -20 9 -27
20 -16 26 -16 38 -1 29 7 -5 8 -3 4 5 -5 7 -11 10 -14 7 -3 -3 -11 3 -19 14
-14 20 -27 20 -1586 19 -865 0 -1580 -3 -1589 -7z"/>
<path d="M4206 590 c-59 -10 -106 -32 -106 -51 0 -5 -12 -21 -26 -34 -26 -24
-26 -24 -8 -54 10 -17 24 -31 31 -31 7 0 13 -4 13 -10 0 -5 7 -10 16 -10 8 0
12 -4 9 -10 -3 -5 -1 -10 5 -10 6 0 34 -18 63 -40 64 -48 116 -71 182 -81 55
-8 253 7 292 22 23 8 24 13 18 46 -19 103 -88 182 -205 236 -73 33 -178 43
-284 27z"/>
</g>
</svg>
