<?xml version="1.0" standalone="no"?>
<!DOCTYPE svg PUBLIC "-//W3C//DTD SVG 20010904//EN"
 "http://www.w3.org/TR/2001/REC-SVG-20010904/DTD/svg10.dtd">
<svg version="1.0" xmlns="http://www.w3.org/2000/svg"
 width="512.000000pt" height="512.000000pt" viewBox="0 0 512.000000 512.000000"
 preserveAspectRatio="xMidYMid meet">

<g transform="translate(0.000000,512.000000) scale(0.100000,-0.100000)"
fill="#000000" stroke="none">
<path d="M2250 4704 c-19 -2 -87 -9 -150 -14 -150 -14 -386 -55 -528 -91 -458
-117 -720 -327 -635 -506 22 -47 108 -113 211 -164 711 -348 2347 -317 2923
56 121 78 154 154 110 251 -95 209 -495 371 -1109 450 -111 14 -735 28 -822
18z"/>
<path d="M920 3435 c0 -435 -4 -413 80 -488 143 -129 521 -248 950 -301 440
-54 983 -45 1395 25 358 60 659 168 783 283 75 69 72 50 72 481 0 212 -3 385
-7 385 -5 0 -33 -15 -63 -33 -448 -268 -1472 -377 -2333 -247 -326 50 -635
144 -807 247 -30 18 -58 33 -62 33 -5 0 -8 -173 -8 -385z"/>
<path d="M920 2391 c0 -209 4 -370 10 -385 29 -78 218 -193 425 -259 847 -272
2297 -185 2752 165 97 75 93 53 93 472 0 339 -4 391 -25 356 -12 -20 -204
-110 -317 -148 -215 -74 -455 -123 -778 -159 -128 -14 -245 -18 -520 -18 -275
0 -392 4 -520 18 -319 35 -576 88 -790 162 -105 37 -293 126 -305 145 -21 34
-25 -17 -25 -349z"/>
<path d="M920 1328 c0 -373 2 -406 19 -444 97 -214 538 -387 1156 -456 162
-18 768 -18 930 0 618 69 1059 242 1156 456 17 38 19 71 19 439 0 219 -3 397
-7 395 -5 -2 -69 -33 -143 -70 -271 -133 -634 -214 -1137 -253 -109 -8 -596
-9 -703 0 -370 28 -666 81 -915 161 -109 35 -280 112 -342 154 l-33 22 0 -404z"/>
</g>
</svg>
