<?xml version="1.0" encoding="iso-8859-1"?>
<!-- Generator: Adobe Illustrator 19.0.0, SVG Export Plug-In . SVG Version: 6.00 Build 0)  -->
<svg version="1.1" id="Capa_1" xmlns="http://www.w3.org/2000/svg" xmlns:xlink="http://www.w3.org/1999/xlink" x="0px" y="0px"
	 viewBox="0 0 512 512" style="enable-background:new 0 0 512 512;" xml:space="preserve">
<path style="fill:#4398D1;" d="M35.31,22.069H476.69c19.5,0,35.31,15.81,35.31,35.31v282.483c0,19.5-15.81,35.31-35.31,35.31H35.31
	c-19.5,0-35.31-15.81-35.31-35.31V57.379C0,37.879,15.81,22.069,35.31,22.069z"/>
<path style="fill:#3E8CC7;" d="M476.69,22.069h-40.519c-75.829,197.032-294.93,300.138-392.033,353.103H476.69
	c19.5,0,35.31-15.81,35.31-35.31V57.379C512,37.879,496.19,22.069,476.69,22.069z"/>
<g>
	<polygon style="fill:#E5E5E5;" points="317.793,481.103 194.207,481.103 211.862,375.172 300.138,375.172 	"/>
	<rect x="158.897" y="472.276" style="fill:#E5E5E5;" width="194.207" height="17.655"/>
</g>
<path style="fill:#87CED9;" d="M109.462,57.379h293.076c6.824,0,12.359,5.535,12.359,12.359v187.145
	c0,6.824-5.535,12.359-12.359,12.359H109.462c-6.824,0-12.359-5.535-12.359-12.359V69.738
	C97.103,62.914,102.638,57.379,109.462,57.379z"/>
<g>
	<rect x="123.586" y="83.862" style="fill:#126099;" width="17.655" height="17.655"/>
	<rect x="158.897" y="83.862" style="fill:#126099;" width="17.655" height="17.655"/>
	<rect x="194.207" y="83.862" style="fill:#126099;" width="17.655" height="17.655"/>
</g>
<rect x="203.034" y="128" style="fill:#FFFFFF;" width="35.31" height="35.31"/>
<g>
	<rect x="123.586" y="119.172" style="fill:#70C2CF;" width="52.966" height="17.655"/>
	<rect x="123.586" y="154.483" style="fill:#70C2CF;" width="52.966" height="17.655"/>
</g>
<g>
	<rect x="273.655" y="128" style="fill:#FFFFFF;" width="35.31" height="35.31"/>
	<rect x="344.276" y="128" style="fill:#FFFFFF;" width="35.31" height="35.31"/>
	<rect x="203.034" y="198.621" style="fill:#FFFFFF;" width="35.31" height="35.31"/>
	<rect x="273.655" y="198.621" style="fill:#FFFFFF;" width="35.31" height="35.31"/>
	<rect x="344.276" y="198.621" style="fill:#FFFFFF;" width="35.31" height="35.31"/>
</g>
<g>
	<rect x="123.586" y="189.793" style="fill:#70C2CF;" width="52.966" height="17.655"/>
	<rect x="123.586" y="225.103" style="fill:#70C2CF;" width="52.966" height="17.655"/>
</g>
<path style="fill:#E5E5E5;" d="M0,339.862c0,19.5,15.81,35.31,35.31,35.31H476.69c19.5,0,35.31-15.81,35.31-35.31v-35.31H0V339.862z
	"/>
<polygon style="fill:#D6D6D6;" points="304.552,401.655 300.138,375.172 211.862,375.172 207.448,401.655 "/>
<g>
</g>
<g>
</g>
<g>
</g>
<g>
</g>
<g>
</g>
<g>
</g>
<g>
</g>
<g>
</g>
<g>
</g>
<g>
</g>
<g>
</g>
<g>
</g>
<g>
</g>
<g>
</g>
<g>
</g>
</svg>
