<?xml version="1.0" encoding="iso-8859-1"?>
<!-- Generator: Adobe Illustrator 19.0.0, SVG Export Plug-In . SVG Version: 6.00 Build 0)  -->
<svg version="1.1" id="Capa_1" xmlns="http://www.w3.org/2000/svg" xmlns:xlink="http://www.w3.org/1999/xlink" x="0px" y="0px"
	 viewBox="0 0 511.998 511.998" style="enable-background:new 0 0 511.998 511.998;" xml:space="preserve">
<path style="fill:#4398D1;" d="M414.695,123.605c-5.056,0.035-10.103,0.485-15.088,1.324
	C375.907,45.552,292.348,0.411,212.963,24.103c-48.67,14.532-86.682,52.703-101.002,101.444c-4.871-1.279-9.882-1.932-14.912-1.941
	c-34.112,0-61.764,27.653-61.764,61.764c0.018,4.729,0.574,9.432,1.676,14.029c-31.235,13.703-45.45,50.144-31.738,81.379
	c9.847,22.438,32.029,36.935,56.532,36.944h8.823l370.586-3.618c51.609-14.497,81.688-68.082,67.191-119.69
	C496.568,152.458,458.274,123.508,414.695,123.605z"/>
<path style="fill:#3E8CC7;" d="M414.695,123.605c-5.056,0.035-10.103,0.485-15.088,1.324c-5.188-17.197-13.412-33.335-24.265-47.647
	c-58.588,109.235-179.999,190.411-274.146,240.44l339.969-3.618c51.609-14.497,81.688-68.082,67.191-119.69
	C496.568,152.458,458.274,123.508,414.695,123.605z"/>
<g>
	<rect x="123.52" y="247.142" style="fill:#D1D1D1;" width="17.647" height="44.117"/>
	<rect x="370.577" y="247.142" style="fill:#D1D1D1;" width="17.647" height="44.117"/>
</g>
<g>
	<rect x="123.52" y="247.142" style="fill:#CCCCCC;" width="17.647" height="26.47"/>
	<rect x="370.577" y="247.142" style="fill:#CCCCCC;" width="17.647" height="26.47"/>
</g>
<path style="fill:#E5E5E5;" d="M109.402,185.369h292.939c6.821,0,12.353,5.532,12.353,12.353v45.882
	c0,6.821-5.532,12.353-12.353,12.353h-292.94c-6.821,0-12.353-5.532-12.353-12.353v-45.882
	C97.049,190.902,102.582,185.369,109.402,185.369z"/>
<rect x="370.577" y="211.848" style="fill:#88B337;" width="17.647" height="17.647"/>
<rect x="123.52" y="211.848" style="fill:#CCCCCC;" width="211.764" height="17.647"/>
<path style="fill:#D6D6D6;" d="M97.049,229.487v14.118c0,6.821,5.532,12.353,12.353,12.353h292.94
	c6.821,0,12.353-5.532,12.353-12.353l0,0v-14.118H97.049z"/>
<g>
	<rect x="123.52" y="353.024" style="fill:#D1D1D1;" width="17.647" height="44.117"/>
	<rect x="370.577" y="353.024" style="fill:#D1D1D1;" width="17.647" height="44.117"/>
</g>
<g>
	<rect x="123.52" y="353.024" style="fill:#CCCCCC;" width="17.647" height="26.47"/>
	<rect x="370.577" y="353.024" style="fill:#CCCCCC;" width="17.647" height="26.47"/>
</g>
<path style="fill:#E5E5E5;" d="M109.402,291.251h292.939c6.821,0,12.353,5.532,12.353,12.353v45.882
	c0,6.821-5.532,12.353-12.353,12.353h-292.94c-6.821,0-12.353-5.532-12.353-12.353v-45.882
	C97.049,296.783,102.582,291.251,109.402,291.251z"/>
<rect x="370.577" y="317.73" style="fill:#88B337;" width="17.647" height="17.647"/>
<rect x="123.52" y="317.73" style="fill:#CCCCCC;" width="211.764" height="17.647"/>
<path style="fill:#D6D6D6;" d="M97.049,335.368v14.118c0,6.821,5.532,12.353,12.353,12.353l0,0h292.94
	c6.821,0,12.353-5.532,12.353-12.353l0,0v-14.118H97.049z"/>
<g>
	<rect x="123.52" y="458.906" style="fill:#D1D1D1;" width="17.647" height="35.294"/>
	<rect x="370.577" y="458.906" style="fill:#D1D1D1;" width="17.647" height="35.294"/>
</g>
<g>
	<rect x="123.52" y="458.906" style="fill:#CCCCCC;" width="17.647" height="26.47"/>
	<rect x="370.577" y="458.906" style="fill:#CCCCCC;" width="17.647" height="26.47"/>
</g>
<path style="fill:#E5E5E5;" d="M109.402,397.133h292.939c6.821,0,12.353,5.532,12.353,12.353v45.882
	c0,6.821-5.532,12.353-12.353,12.353h-292.94c-6.821,0-12.353-5.532-12.353-12.353v-45.882
	C97.049,402.665,102.582,397.133,109.402,397.133z"/>
<rect x="370.577" y="423.612" style="fill:#88B337;" width="17.647" height="17.647"/>
<rect x="123.52" y="423.612" style="fill:#CCCCCC;" width="211.764" height="17.647"/>
<path style="fill:#D6D6D6;" d="M97.049,441.25v14.118c0,6.821,5.532,12.353,12.353,12.353l0,0h292.94
	c6.821,0,12.353-5.532,12.353-12.353l0,0V441.25H97.049z"/>
<g>
</g>
<g>
</g>
<g>
</g>
<g>
</g>
<g>
</g>
<g>
</g>
<g>
</g>
<g>
</g>
<g>
</g>
<g>
</g>
<g>
</g>
<g>
</g>
<g>
</g>
<g>
</g>
<g>
</g>
</svg>
