<?xml version="1.0" encoding="iso-8859-1"?>
<!-- Generator: Adobe Illustrator 19.0.0, SVG Export Plug-In . SVG Version: 6.00 Build 0)  -->
<svg version="1.1" id="Capa_1" xmlns="http://www.w3.org/2000/svg" xmlns:xlink="http://www.w3.org/1999/xlink" x="0px" y="0px"
	 viewBox="0 0 512 512" style="enable-background:new 0 0 512 512;" xml:space="preserve">
<path style="fill:#E5E5E5;" d="M414.895,348.651c53.629,0,97.105-43.477,97.105-97.105s-43.477-97.105-97.105-97.105
	c-5.058,0.035-10.108,0.486-15.095,1.324C376.088,76.351,292.489,31.188,213.066,54.9c-48.694,14.539-86.724,52.728-101.051,101.493
	c-4.873-1.28-9.887-1.933-14.919-1.942c-34.128,0-61.794,27.666-61.794,61.794c0.018,4.732,0.574,9.437,1.677,14.036
	C5.729,243.99-8.492,280.448,5.226,311.698c9.852,22.449,32.045,36.953,56.559,36.962h353.11V348.651z"/>
<path style="fill:#DBDBDB;" d="M414.895,154.441c-5.058,0.035-10.108,0.486-15.095,1.324c-6.956-23.217-19.395-44.412-36.282-61.794
	c-55.791,153.161-181.94,222.9-282.488,254.68h333.865c53.629,0,97.105-43.477,97.105-97.105S468.523,154.441,414.895,154.441z"/>
<polygon style="fill:#4398D1;" points="255.996,313.34 185.374,233.891 114.752,313.34 150.063,313.34 150.063,436.929 
	220.685,436.929 220.685,313.34 "/>
<polygon style="fill:#87CED9;" points="255.996,383.962 326.617,463.412 397.239,383.962 361.928,383.962 361.928,260.374 
	291.307,260.374 291.307,383.962 "/>
<path style="fill:#3E8CC7;" d="M150.063,436.929h70.622v-66.296c-22.917,9.631-46.522,17.541-70.622,23.658V436.929z"/>
<path style="fill:#70C2CF;" d="M361.928,277.235c-21.531,21.169-45.198,40.043-70.622,56.321v50.406h-35.311l70.622,79.45
	l70.622-79.45h-35.311V277.235z"/>
<g>
</g>
<g>
</g>
<g>
</g>
<g>
</g>
<g>
</g>
<g>
</g>
<g>
</g>
<g>
</g>
<g>
</g>
<g>
</g>
<g>
</g>
<g>
</g>
<g>
</g>
<g>
</g>
<g>
</g>
</svg>
