<?xml version="1.0" encoding="iso-8859-1"?>
<!-- Generator: Adobe Illustrator 19.0.0, SVG Export Plug-In . SVG Version: 6.00 Build 0)  -->
<svg version="1.1" id="Capa_1" xmlns="http://www.w3.org/2000/svg" xmlns:xlink="http://www.w3.org/1999/xlink" x="0px" y="0px"
	 viewBox="0 0 512 512" style="enable-background:new 0 0 512 512;" xml:space="preserve">
<polygon style="fill:#E5E5E5;" points="264.533,429.717 264.533,352.917 247.467,352.917 247.467,429.717 0,429.717 0,446.784 
	512,446.784 512,429.717 "/>
<rect x="247.467" y="344.341" style="fill:#CCCCCC;" width="17.067" height="25.6"/>
<g>
	<path style="fill:#D6D6D6;" d="M107.435,59.285c-3.209,3.183-5.018,7.509-5.035,12.032v179.2h34.133v-179.2
		c-0.043-9.429-7.714-17.033-17.135-16.998C114.91,54.345,110.618,56.128,107.435,59.285z"/>
	<path style="fill:#D6D6D6;" d="M404.565,59.285c-6.682-6.647-17.493-6.613-24.132,0.068c-3.166,3.183-4.949,7.484-4.966,11.964
		v187.733H409.6V71.317C409.583,66.795,407.774,62.468,404.565,59.285z"/>
	<path style="fill:#D6D6D6;" d="M107.435,59.285c-3.209,3.183-5.018,7.509-5.035,12.032v187.733h34.133V71.317
		c-0.043-9.429-7.714-17.033-17.135-16.998C114.91,54.345,110.618,56.128,107.435,59.285z"/>
</g>
<g>
	<path style="fill:#CCCCCC;" d="M102.4,259.051h34.133v-34.133c-9.361,8.764-21.367,14.174-34.133,15.36V259.051z"/>
	<path style="fill:#CCCCCC;" d="M375.467,259.051H409.6v-34.133c-9.361,8.764-21.367,14.174-34.133,15.36V259.051z"/>
</g>
<path style="fill:#DBDBDB;" d="M25.6,250.517h460.8c9.429,0,17.067,7.637,17.067,17.067v68.267c0,9.429-7.637,17.067-17.067,17.067
	H25.6c-9.429,0-17.067-7.637-17.067-17.067v-68.267C8.533,258.155,16.171,250.517,25.6,250.517z"/>
<g>
	<rect x="34.133" y="293.141" style="fill:#CCCCCC;" width="17.067" height="17.067"/>
	<rect x="68.267" y="293.141" style="fill:#CCCCCC;" width="17.067" height="17.067"/>
	<rect x="102.4" y="293.141" style="fill:#CCCCCC;" width="17.067" height="17.067"/>
	<rect x="136.533" y="293.141" style="fill:#CCCCCC;" width="17.067" height="17.067"/>
	<rect x="170.667" y="293.141" style="fill:#CCCCCC;" width="17.067" height="17.067"/>
	<rect x="204.8" y="293.141" style="fill:#CCCCCC;" width="17.067" height="17.067"/>
</g>
<circle style="fill:#4398D1;" cx="452.267" cy="301.675" r="17.067"/>
<g>
	<circle style="fill:#88B337;" cx="384" cy="301.675" r="17.067"/>
	<circle style="fill:#88B337;" cx="315.733" cy="301.675" r="17.067"/>
</g>
<g>
	<path style="fill:#4398D1;" d="M68.267,111.509c-12.74-12.783-12.74-33.468,0-46.251l12.032,12.117
		c-6.05,6.093-6.05,15.923,0,22.016L68.267,111.509z"/>
	<path style="fill:#4398D1;" d="M42.667,128.576c-22.195-22.195-22.204-58.172-0.009-80.375l0.009-0.009l11.605,12.117
		c-15.428,15.539-15.428,40.61,0,56.149L42.667,128.576z"/>
	<path style="fill:#4398D1;" d="M171.093,111.509l-12.032-12.117c6.05-6.093,6.05-15.923,0-22.016l12.032-12.117
		C183.834,78.042,183.834,98.726,171.093,111.509z"/>
	<path style="fill:#4398D1;" d="M196.693,128.576l-12.032-12.117c15.428-15.539,15.428-40.61,0-56.149l12.032-12.117
		c22.195,22.195,22.204,58.172,0.009,80.375C196.702,128.567,196.693,128.576,196.693,128.576z"/>
	<path style="fill:#4398D1;" d="M341.333,111.509c-12.74-12.783-12.74-33.468,0-46.251l12.032,12.117
		c-6.05,6.093-6.05,15.923,0,22.016L341.333,111.509z"/>
	<path style="fill:#4398D1;" d="M315.733,128.576c-22.195-22.195-22.204-58.172-0.009-80.375l0.009-0.009l12.032,12.117
		c-15.428,15.539-15.428,40.61,0,56.149L315.733,128.576z"/>
	<path style="fill:#4398D1;" d="M444.16,111.509l-12.032-12.117c6.05-6.093,6.05-15.923,0-22.016l12.032-12.117
		C456.9,78.042,456.9,98.726,444.16,111.509z"/>
	<path style="fill:#4398D1;" d="M469.76,128.576l-12.032-12.117c15.428-15.539,15.428-40.61,0-56.149l12.032-12.117
		c22.195,22.195,22.204,58.172,0.009,80.375C469.769,128.567,469.76,128.576,469.76,128.576z"/>
</g>
<path style="fill:#D6D6D6;" d="M8.533,335.851c0,9.429,7.637,17.067,17.067,17.067h460.8c9.429,0,17.067-7.637,17.067-17.067
	v-17.067H8.533V335.851z"/>
<circle style="fill:#4398D1;" cx="256" cy="438.208" r="25.6"/>
<g>
</g>
<g>
</g>
<g>
</g>
<g>
</g>
<g>
</g>
<g>
</g>
<g>
</g>
<g>
</g>
<g>
</g>
<g>
</g>
<g>
</g>
<g>
</g>
<g>
</g>
<g>
</g>
<g>
</g>
</svg>
